# xmcd
#
# Track frame offsets:
#	150
#	23520
#	36496
#	61772
#	95745
#	111241
#	145777
#	198132
#	209111
#	225405
#	232968
#	260440
#	265733
#	293685
#	309339
#
# Disc length: 4677 seconds
#
# Revision: 3
# Processed by: cddbd v1.5.1PL0 Copyright (c) Steve Scherf et al.
# Submitted via: EasyCDDAExtractor 5.1.0
#
DISCID=cd12430f
DTITLE=Alice Cooper - Rattle Snake and Roll
DYEAR=1971
DGENRE=Hard Rock
TTITLE0=Sun Arise
TTITLE1=Caught In A Dream
TTITLE2=I'm Eighteen
TTITLE3=Is It My Body
TTITLE4=Second Coming
TTITLE5=Ballad Of Dwight Fry
TTITLE6=Black Juju
TTITLE7=Watching For The Worms
TTITLE8=Refelcting
TTITLE9=Standing Still
TTITLE10=Refrigerator
TTITLE11=Heaven
TTITLE12=Lord Knows What
TTITLE13=Lay Down and Die
TTITLE14=Goodbye
EXTD=
EXTT0=
EXTT1=
EXTT2=
EXTT3=
EXTT4=
EXTT5=
EXTT6=
EXTT7=
EXTT8=
EXTT9=
EXTT10=
EXTT11=
EXTT12=
EXTT13=
EXTT14=
PLAYORDER=
